<svg id="ef91rnZlRWy1" xmlns="http://www.w3.org/2000/svg" xmlns:xlink="http://www.w3.org/1999/xlink" viewBox="0 0 300 300" shape-rendering="geometricPrecision" text-rendering="geometricPrecision"><path d="M50,257.41L50,200h10v57.41h-10Z" transform="translate(55-97.41)" fill="none" stroke="#fff" stroke-width="2" stroke-linejoin="bevel"/><path d="M50,257.41L50,200h10v57.41h-10Z" transform="translate(160-97.41)" fill="none" stroke="#fff" stroke-width="2" stroke-linejoin="bevel"/><g><path d="M80,180h115v-10h-115v10Z" transform="translate(0 10)" fill="none" stroke="#fff" stroke-width="2" stroke-linejoin="bevel"/><path d="M195,190l25-20v-10l-25,20v10Z" fill="none" stroke="#fff" stroke-width="2" stroke-linejoin="bevel"/><path d="M195,170h-115l25-20h115" transform="translate(0 10)" fill="none" stroke="#fff" stroke-width="2" stroke-linejoin="bevel"/></g><g><path d="M50,260v-52l10-8v60h-10Z" transform="translate(160-30)" fill="none" stroke="#fff" stroke-width="2" stroke-linejoin="bevel"/><path d="M50,260v-60h10v60h-10Z" transform="translate(135-10)" fill="none" stroke="#fff" stroke-width="2" stroke-linejoin="bevel"/><path d="M50,240v-40h10v40h-10Z" transform="translate(55-10)" fill="none" stroke="#fff" stroke-width="2" stroke-linejoin="bevel"/><path d="M50,260v-60h10v60h-10Z" transform="translate(30-10)" fill="none" stroke="#fff" stroke-width="2" stroke-linejoin="bevel"/></g><g><path d="M105,62.591812v40" transform="translate(115 0)" fill="none" stroke="#fff" stroke-width="2" stroke-linejoin="bevel"/><path d="M105,62.591812v40" fill="none" stroke="#fff" stroke-width="2" stroke-linejoin="bevel"/><path d="M115,110c26.359675-17.593855,83.981318-15.986056,115,0" transform="translate(-10-47.408188)" fill="none" stroke="#fff" stroke-width="2" stroke-linejoin="bevel"/><path d="M115,110c21.775384-17.593855,69.375871-15.986056,95,0" transform="translate(0-7.408188)" fill="none" stroke="#fff" stroke-width="2" stroke-linejoin="bevel"/></g></svg>
