<svg id="eQZvfEbVHTo1" xmlns="http://www.w3.org/2000/svg" xmlns:xlink="http://www.w3.org/1999/xlink" viewBox="0 0 300 300" shape-rendering="geometricPrecision" text-rendering="geometricPrecision"><path d="M150,61.14526l-100,75l.032352,125h200.000001l-.000002-125L150,61.14526Z" transform="translate(-.03235-11.14526)" fill="none" stroke="#fff" stroke-width="3"/><path d="M117,150v-60h40v60h-40Z" transform="translate(13 100)" fill="none" stroke="#fff" stroke-width="2"/><ellipse rx="2.5" ry="2.5" transform="translate(142.5 227.5)" fill="none" stroke="#fff"/><g><line x1="-15" y1="0" x2="15" y2="0" transform="translate(100 150)" fill="none" stroke="#fff" stroke-width="2"/><line x1="-15" y1="0" x2="15" y2="0" transform="matrix(0 1-1 0 100 150)" fill="none" stroke="#fff" stroke-width="2"/><rect width="30" height="30" rx="0" ry="0" transform="translate(85 135)" fill="none" stroke="#fff" stroke-width="2"/></g><g><line x1="-15" y1="0" x2="15" y2="0" transform="translate(200 150)" fill="none" stroke="#fff" stroke-width="2"/><line x1="-15" y1="0" x2="15" y2="0" transform="matrix(0 1-1 0 200 150)" fill="none" stroke="#fff" stroke-width="2"/><rect width="30" height="30" rx="0" ry="0" transform="translate(185 135)" fill="none" stroke="#fff" stroke-width="2"/></g></svg>
