<svg id="eBINqAm8Cjv1" xmlns="http://www.w3.org/2000/svg" xmlns:xlink="http://www.w3.org/1999/xlink" viewBox="0 0 300 300" shape-rendering="geometricPrecision" text-rendering="geometricPrecision"><rect width="150" height="200" rx="0" ry="0" transform="translate(75 50)" fill="none" stroke="#fff" stroke-width="3"/><path d="M90.79586,88.32093c0,21.47538,8.13983-15.70484,15.52896-3.88224c1.54319,2.4691-1.61511,6.31237,0,8.73504c3.96738,5.95107,7.92605-4.23815,9.7056-3.88224c1.66403.33281,3.49597,6.52255,4.8528,6.79392c2.03131.40626,1.87255-4.35038,3.88224-4.8528c2.8954-.72385,8.78136,3.552,13.58784-1.94112c1.34738-1.53986,0-6.4704,1.94112-5.82336c3.73382,1.24461-1.99467,11.64672,1.94112,11.64672c4.16192,0-3.10456-11.10296,3.88224-9.7056c2.00639.40128-.04391,5.3271,1.94112,5.82336c1.69019.42255.19891-4.8528,1.94112-4.8528c1.88643,0,2.21108,3.10129,2.91168,4.8528.61266,1.53165-.67907,4.8528.97056,4.8528c4.79178,0,.25164-10.01371,7.76448-6.79392c1.60134.68629.19891,4.8528,1.94112,4.8528c1.64963,0-.59442-4.33114.97056-4.8528c1.78962-.59654,3.003,2.54172,4.8528,2.91168c12.0352,2.40704,13.71815-11.47296,22.32287,0c1.04532,1.39377,3.26675,2.66205,4.8528,1.94112c2.71536-1.23425,2.87063-6.3721,5.82336-6.79392.40047-.05721,3.00383,11.00909,11.64672,5.82336c1.77633-1.0658,2.15861-6.00188,3.88224-4.8528c1.90342,1.26895-.64704,4.52928-.97056,6.79392" transform="translate(-3.999999 0)" fill="none" stroke="#fff" stroke-width="2"/><path d="M88.85474,131.02556c0,2.26464-2.10266,5.95285,0,6.79392c4.46548,1.78619,5.93213-8.91493,10.67616-9.7056c1.70373-.28395,11.34885,9.77045,22.32287,2.91168c1.73511-1.08444.04134-5.06345,1.94112-5.82336c2.95841-1.18336,1.03232,10.15999,3.88224,8.73504c1.76014-.88007-.99733-5.82336.97056-5.82336s-.89635,5.20105.97056,5.82336c1.6528.55093.19891-4.8528,1.94112-4.8528c1.88643,0,1.02525,4.8528,2.91168,4.8528c3.05208,0,4.7124-4.8528,7.76448-4.8528c1.74221,0,.19891,4.8528,1.94112,4.8528s.19891-4.8528,1.94112-4.8528c1.64963,0-.62982,5.25289.97056,4.8528c1.2246-.30615,7.31573-11.76449,12.61728-8.73504c1.77653,1.01516-.105,5.82336,1.94112,5.82336c3.61706,0-1.49033-11.81997,1.94112-10.67616c3.98155,1.32718.17928,11.25108,2.91168,12.61728c3.2352,1.6176-.61653-13.23381,1.94112-10.67616c1.6176,1.6176.59448,4.53741.97056,6.79392.48162,2.88974,6.05794-.21926,8.73504.97056c2.4983,1.11035,9.82831,9.53189,12.61728,8.73504c5.6507-1.61449,13.61684-11.24689,27.17567-5.82336" transform="translate(-4 0)" fill="none" stroke="#fff" stroke-width="2"/><path d="M90.79586,173.73018c0,15.16595,4.36208-4.36208,6.79392-6.79392c4.35353-4.35353,12.86872,6.18644,16.49951,5.82336c2.51423-.25142,3.39381-5.54696,5.82336-4.8528c3.11072.88878,2.867,6.45054,5.82336,7.76448c1.47818.65697,2.40406,3.56865,3.88224,2.91168c3.96638-1.76283,2.75418-14.7159,5.82336-11.64672c2.74516,2.74516-3.32899,9.64932,0,11.64672c1.6176.97056,3.003-2.54172,4.8528-2.91168c12.28161-2.45632,27.60379.63042,40.76351-4.8528c6.2264-2.59433,29.66717,16.65928,32.99903,0" transform="translate(-2 0.000001)" fill="none" stroke="#fff" stroke-width="2"/><path d="M90.79586,214.49369c0,3.61706-5.17632,12.29376-1.94112,10.67616c3.98724-1.99362,4.19199-12.57368,7.76448-14.55839c6.28052-3.48918,9.78541,6.34854,10.67616,6.79392c1.68727.84364,1.05092-4.54267,2.91168-4.8528c2.63151-.43859,5.17632,1.29408,7.76448,1.94112c3.09117.77279.73929,8.21121,3.88224,8.73504c4.37083.72847,22.3259-9.38107,24.26399-8.73504c5.02547,1.67516,16.48823-.37101,23.29343,3.88224c1.47739.92337.19891,4.8528,1.94112,4.8528c3.61706,0-1.6057-9.96679,1.94112-10.67616c1.8498-.36996,1.02525,4.8528,2.91168,4.8528c2.07154,0,1.8107-4.8528,3.88224-4.8528c1.88643,0,1.09783,5.37104,2.91168,4.8528c2.50794-.71656,1.5493-5.62745,3.88224-6.79392c3.91876-1.95938,12.86738,15.52895,13.58784,15.52895c2.07154,0,1.98924-4.01147,3.88224-4.8528c2.13186-.94749,5.36583-1.59461,5.82336-3.88224" fill="none" stroke="#fff" stroke-width="2"/></svg>
